<svg width="577" height="512" xmlns="http://www.w3.org/2000/svg"><path d="M571.69 236.28L513 184.45V48c0-8.837-7.163-16-16-16h-64c-8.837 0-16 7.163-16 16v51.69L315.75 10.31c-15.175-13.72-38.275-13.72-53.45 0l-256 226a16 16 0 00-1.21 22.6L26.5 282.7a16 16 0 0022.6 1.21L278.42 81.63c6.048-5.336 15.122-5.336 21.17 0L528.91 283.9a16 16 0 0022.6-1.21l21.4-23.82c5.9-6.576 5.353-16.688-1.22-22.59zM289 115L70.47 307.71c-1.62 1.46-3.69 2.14-5.47 3.35V496c0 8.837 7.163 16 16 16h128c8.837 0 16-7.163 16-16V368c0-8.837 7.163-16 16-16h96c8.837 0 16 7.163 16 16v128c0 8.837 7.163 16 16 16h128c8.837 0 16-7.163 16-16V311.1c-1.7-1.16-3.72-1.82-5.26-3.2L289 115z" fill="#FFF" fill-rule="nonzero"/></svg>