<?xml version="1.0" encoding="UTF-8"?>
<svg width="577px" height="512px" viewBox="0 0 577 512" version="1.1" xmlns="http://www.w3.org/2000/svg" xmlns:xlink="http://www.w3.org/1999/xlink">
    <title>home-icon</title>
    <g id="Page-1" stroke="none" stroke-width="1" fill="none" fill-rule="evenodd">
        <g id="home-icon" fill="#FFFFFF" fill-rule="nonzero">
            <path d="M571.69,236.28 L513,184.45 L513,48 C513,39.163444 505.836556,32 497,32 L433,32 C424.163444,32 417,39.163444 417,48 L417,99.69 L315.75,10.31 C300.574629,-3.40992614 277.475371,-3.40992614 262.3,10.31 L6.3,236.31 C3.14176509,239.14599 1.23987229,243.120717 1.01293804,247.359323 C0.786003797,251.59793 2.25262834,255.753007 5.09,258.91 L26.5,282.7 C29.3359896,285.858235 33.3107167,287.760128 37.5493232,287.987062 C41.7879298,288.213996 45.9430067,286.747372 49.1,283.91 L278.42,81.63 C284.468065,76.2943207 293.541935,76.2943207 299.59,81.63 L528.91,283.9 C532.066993,286.737372 536.22207,288.203996 540.460677,287.977062 C544.699283,287.750128 548.67401,285.848235 551.51,282.69 L572.91,258.87 C578.80937,252.294419 578.263236,242.181983 571.69,236.28 Z M289,115 L70.47,307.71 C68.85,309.17 66.78,309.85 65,311.06 L65,496 C65,504.836556 72.163444,512 81,512 L209,512 C217.836556,512 225,504.836556 225,496 L225,368 C225,359.163444 232.163444,352 241,352 L337,352 C345.836556,352 353,359.163444 353,368 L353,496 C353,504.836556 360.163444,512 369,512 L497,512 C505.836556,512 513,504.836556 513,496 L513,311.1 C511.3,309.94 509.28,309.28 507.74,307.9 L289,115 Z" id="Shape"></path>
        </g>
    </g>
</svg>